<svg width="95" height="64" viewBox="0 0 95 64" fill="none" xmlns="http://www.w3.org/2000/svg">
<path d="M31.9662 5.557C32.183 5.55565 32.6085 5.54615 32.8042 5.63247C35.5482 6.84325 38.2796 8.07443 40.9631 9.41581C41.2641 9.56631 41.6527 9.63162 41.8818 9.82975C42.3808 10.119 42.9187 10.3882 43.3576 10.7546C43.4377 12.0973 42.7881 19.3457 42.0966 20.1866C41.4733 20.4531 38.6003 19.6819 37.8439 19.5293C36.5389 19.2661 35.1577 19.0289 33.8669 18.6869C33.3504 18.5501 32.8243 18.3923 32.2972 18.3018L21.5224 22.9926C20.8845 23.2666 18.2781 24.2154 17.8323 24.5757C17.6777 25.4275 17.7536 26.6738 17.7572 27.5753L17.751 31.8159L17.7402 37.6784C17.7387 38.5347 17.6706 40.3739 17.8391 41.1002C18.1851 41.3494 18.8451 41.6272 19.2584 41.7992C24.1484 43.835 28.9607 46.0369 33.9096 47.9264C35.4456 48.5128 36.0687 47.9459 37.4311 47.3025L41.5229 45.3503L50.2836 41.1957C51.1645 40.7767 52.2555 40.3679 53.0671 39.9511C52.8886 41.4121 52.5846 42.3837 52.2566 43.7818L51.2044 48.3531C50.8276 49.9697 50.5639 51.6376 50.0724 53.2264C49.9159 53.7322 49.6836 55.1375 49.3647 55.425C48.4366 56.2619 46.1529 57.1829 45.069 57.6922L40.5686 59.8441C39.7131 60.252 38.9138 60.7424 38.0244 61.1062C36.8903 61.5702 36.1388 62.2508 34.8687 61.7232C33.0574 60.9709 31.3759 60.0279 29.622 59.1622C26.0392 57.4227 22.4756 55.6439 18.9319 53.8261L11.2211 49.9222C10.1644 49.39 6.3815 47.6169 5.83587 46.9559C5.70662 46.3266 5.73782 44.8001 5.73237 44.1138L5.73498 37.9297C5.70499 33.4427 5.70272 28.9555 5.72818 24.4685C5.73081 23.7132 5.62978 19.8369 5.86621 18.9277C5.89231 18.8273 7.06369 18.1374 7.28562 18.0279C11.8449 15.7782 16.3833 13.2289 20.9556 11.0313C21.433 10.7562 21.9983 10.5908 22.4608 10.3202C24.2314 9.28425 26.1166 8.46668 27.9349 7.51206C29.2726 6.80981 30.6474 6.35137 31.9662 5.557Z" fill="#401596"/>
<path d="M31.9662 5.557C32.183 5.55565 32.6085 5.54615 32.8042 5.63247C35.5482 6.84325 38.2796 8.07443 40.9631 9.41581C41.2641 9.56631 41.6527 9.63162 41.8818 9.82975C41.9681 9.98887 42.0016 10.0502 42.1536 10.159C41.5722 10.6829 41.3536 10.6437 40.6181 10.7356C40.5972 10.7382 40.4401 10.9684 40.4479 10.9639C40.2783 11.0615 39.6644 11.1527 39.5759 11.2811C39.3192 11.6538 39.5859 11.5442 39.2087 11.9624C38.5484 12.6947 37.8196 13.5814 37.1326 14.2719C35.4684 15.9447 33.0377 15.5072 30.9192 15.6315C30.6611 15.6466 29.9121 15.9429 29.5952 16.0127C29.0032 16.1512 28.271 16.1255 27.6781 16.1006C26.1694 16.0348 24.7681 15.5617 23.7936 14.3555C23.0698 13.4597 22.64 12.6437 21.514 12.1819C21.6266 12.2281 20.6449 11.4019 20.6516 11.4087C20.7759 11.1617 20.826 11.1975 20.9556 11.0313C21.433 10.7562 21.9983 10.5908 22.4608 10.3202C24.2314 9.28425 26.1166 8.46668 27.9349 7.51206C29.2726 6.80981 30.6474 6.35137 31.9662 5.557Z" fill="#6928D8"/>
<path d="M46.7861 17.5474C46.9478 16.6306 47.8129 12.7174 48.2777 12.1306C48.7618 11.5192 57.7517 7.14307 59.0173 6.61925C59.3964 6.46232 59.9336 6.25769 60.343 6.23909C61.5805 6.18283 71.7725 11.4925 73.5762 12.4048C74.2106 12.7254 74.8675 12.9997 75.4987 13.3256C76.2844 13.7311 77.0406 14.1934 77.8281 14.5954C78.7281 15.0551 81.2856 16.1731 81.9181 16.7212C82.5362 16.8208 85.5881 18.4735 86.0975 18.8693C86.1613 19.2156 86.2388 19.7603 86.1975 20.1124C86.0825 21.2157 86.26 23.0691 86.1494 23.9462C86.0575 23.886 86.1238 23.5535 86.1413 23.4622C86.0363 23.2698 85.8769 23.2194 85.6756 23.3109C83.2731 24.4056 81.18 24.7741 78.5675 24.5381C77.5425 24.4454 76.2506 24.6541 75.2063 24.4356C74.4625 24.3074 74.0944 23.7244 73.2275 23.6528C73.1725 23.7329 73.1812 23.6979 73.1706 23.7884C72.2119 23.4111 71.2738 22.988 70.3369 22.5588C68.8488 21.8769 67.3344 21.2521 65.8587 20.5431C64.6006 19.9267 63.3288 19.3388 62.0446 18.7798C61.5211 18.5471 60.5819 18.1031 60.0694 17.9722C59.1861 18.2101 57.8276 18.6771 57.0899 19.2084C56.7329 20.2189 56.5493 21.1831 56.3474 22.2242C56.2742 22.6016 56.0346 23.9366 55.8973 24.2303L55.7591 24.849C55.1919 26.806 54.8971 29.0713 54.2565 31.0466C54.1441 31.3931 54.0552 31.5504 53.7565 31.7571C52.9239 32.3331 51.9785 32.8191 51.0974 33.3163L47.2686 35.5174C45.6172 36.4494 43.4243 37.8524 41.7669 38.6499C42.0103 37.1263 42.364 35.8511 42.7082 34.3664C43.4278 31.2099 44.2249 28.0715 45.0988 24.9541C45.1306 24.6133 45.2286 24.298 45.3183 23.9679C45.4114 22.9169 45.8754 21.4583 46.1391 20.3856C46.3014 19.7253 46.5854 18.0961 46.7861 17.5474Z" fill="#767981"/>
<path d="M46.7861 17.5474C46.9478 16.6306 47.8129 12.7174 48.2777 12.1306C48.7618 11.5192 57.7517 7.14307 59.0173 6.61925C59.3964 6.46232 59.9336 6.25769 60.343 6.23909C61.5805 6.18283 71.7725 11.4925 73.5763 12.4048C74.2106 12.7254 74.8675 12.9997 75.4988 13.3256C76.2844 13.7311 77.0406 14.1934 77.8281 14.5954C78.7281 15.0551 81.2856 16.1731 81.9181 16.7212C81.6181 16.6888 80.9625 16.2962 80.6088 16.1393C80.0244 16.3139 79.3031 16.3698 78.6681 16.4646C75.3938 16.9538 72.09 17.3265 68.8156 17.8002C67.9263 17.9288 66.2463 17.4057 65.295 17.4419C63.4138 17.4466 61.6031 17.5202 59.722 17.3083C59.0546 17.2331 58.2551 17.348 57.5692 17.2453C56.0046 17.087 54.5496 16.9443 52.9755 17.0189C51.1381 17.1062 49.2921 17.5023 47.4799 17.6186C47.2536 17.4804 47.1767 17.3726 46.9702 17.4103C46.8764 17.5076 46.8984 17.5137 46.7861 17.5474Z" fill="#A1A3A9"/>
<path d="M45.0988 24.9541C45.1902 24.8439 45.2268 24.8089 45.2407 24.6648L45.3179 24.6211C45.4232 24.8299 45.4673 24.9606 45.6634 25.0867C46.0488 25.1959 46.7197 25.0771 47.1771 25.1237C49.6343 25.3739 52.2071 25.3736 54.6 24.7196C54.9216 24.6317 55.5767 24.2894 55.6456 24.8143C55.7134 24.8529 55.6846 24.8476 55.7591 24.849C55.1919 26.806 54.8971 29.0712 54.2565 31.0466C54.1441 31.3931 54.0552 31.5504 53.7565 31.7571C52.9239 32.3331 51.9785 32.8191 51.0974 33.3162L47.2686 35.5174C45.6172 36.4494 43.4243 37.8524 41.7669 38.6499C42.0103 37.1262 42.364 35.8511 42.7082 34.3664C43.4278 31.2099 44.2249 28.0715 45.0988 24.9541Z" fill="#44474F"/>
<path d="M45.0988 24.9541C45.1306 24.6133 45.2286 24.298 45.3183 23.9679C45.3816 24.3226 45.4883 24.8194 45.9564 24.792C47.3445 24.7107 48.7133 24.9934 50.0956 25.0109C51.8611 25.0331 53.6514 24.7273 55.3581 24.2938C55.4924 24.2597 55.6094 24.4909 55.7143 24.5091C55.7616 24.4311 55.8402 24.2913 55.8973 24.2303L55.7591 24.849C55.6846 24.8476 55.7134 24.8529 55.6456 24.8143C55.5767 24.2894 54.9216 24.6317 54.6 24.7196C52.2071 25.3736 49.6343 25.3739 47.1771 25.1237C46.7197 25.0771 46.0488 25.1959 45.6634 25.0867C45.4673 24.9606 45.4232 24.8299 45.3179 24.6211L45.2407 24.6648C45.2268 24.8089 45.1902 24.8439 45.0988 24.9541Z" fill="#5A5E65"/>
<path d="M86.1975 20.1124C86.2869 21.1485 86.2375 23.1149 86.2369 24.2408C86.2125 26.9969 86.2031 29.7532 86.2094 32.5095L86.1813 41.6869C86.1806 43.2608 86.2694 45.4104 86.1444 46.9418C85.6781 47.4907 80.3344 50.1249 79.3756 50.6384C75.1281 52.9543 70.85 55.2128 66.5419 57.4134C65.4794 57.9479 64.4244 58.496 63.3763 59.0575C62.4769 59.541 61.5613 60.0859 60.6011 60.4359C60.3633 60.5362 60.006 60.3876 59.7904 60.2711C58.1789 59.3993 56.5029 58.498 54.9368 57.5632C54.557 57.3365 52.4728 56.249 52.4731 55.9316C52.474 55.0589 53.0549 52.2325 53.4168 51.4762C54.0918 50.9528 55.1403 50.4747 55.9111 50.0836C57.2861 49.3858 58.6864 48.7414 60.0753 48.0668L70.2663 43.0154C71.13 42.5923 73.605 41.5368 74.2425 40.9615C74.3994 38.1418 74.3006 34.3955 74.305 31.5096L74.3106 27.0989C74.3106 26.2929 74.3344 25.1529 74.2625 24.3639C73.9056 24.1589 73.5419 23.9669 73.1706 23.7884C73.1813 23.6979 73.1725 23.7329 73.2275 23.6528C74.0944 23.7244 74.4625 24.3074 75.2063 24.4356C76.2506 24.6541 77.5425 24.4454 78.5675 24.5381C81.18 24.7741 83.2731 24.4056 85.6756 23.3109C85.8769 23.2194 86.0363 23.2698 86.1413 23.4622C86.1238 23.5535 86.0575 23.886 86.1494 23.9462C86.26 23.0691 86.0825 21.2157 86.1975 20.1124Z" fill="#31353C"/>
</svg>
